<mxfile host="65bd71144e">
    <diagram id="yyCvPT_rSkDS5l3CbCxt" name="Page-1">
        <mxGraphModel dx="1101" dy="607" grid="1" gridSize="10" guides="1" tooltips="1" connect="1" arrows="1" fold="1" page="1" pageScale="1" pageWidth="1100" pageHeight="1700" math="0" shadow="0">
            <root>
                <mxCell id="0"/>
                <mxCell id="1" parent="0"/>
                <mxCell id="2" value="" style="rounded=1;whiteSpace=wrap;html=1;strokeWidth=1;imageHeight=24;perimeterSpacing=0;arcSize=12;strokeColor=#32CD32;" vertex="1" parent="1">
                    <mxGeometry x="180" y="170" width="830" height="800" as="geometry"/>
                </mxCell>
                <mxCell id="21" value="" style="rounded=1;whiteSpace=wrap;html=1;strokeWidth=1;gradientColor=default;fillColor=none;strokeColor=#32CD32;" vertex="1" parent="1">
                    <mxGeometry x="215" y="180" width="760" height="780" as="geometry"/>
                </mxCell>
                <mxCell id="22" value="footer" style="rounded=1;whiteSpace=wrap;html=1;strokeWidth=1;strokeColor=#32CD32;" vertex="1" parent="1">
                    <mxGeometry x="230" y="890" width="730" height="10" as="geometry"/>
                </mxCell>
                <mxCell id="23" value="" style="rounded=0;whiteSpace=wrap;html=1;strokeWidth=1;" vertex="1" parent="1">
                    <mxGeometry x="215" y="640" width="760" height="10" as="geometry"/>
                </mxCell>
                <mxCell id="25" value="000000" style="rounded=0;whiteSpace=wrap;html=1;strokeWidth=1;" vertex="1" parent="1">
                    <mxGeometry x="490" y="980" width="600" height="60" as="geometry"/>
                </mxCell>
                <mxCell id="26" value="" style="rounded=0;whiteSpace=wrap;html=1;strokeColor=#32CD32;strokeWidth=1;fillColor=#32CD32;gradientColor=none;" vertex="1" parent="1">
                    <mxGeometry x="90" y="980" width="100" height="60" as="geometry"/>
                </mxCell>
                <mxCell id="28" value="" style="edgeStyle=none;html=1;" edge="1" parent="1" source="27" target="25">
                    <mxGeometry relative="1" as="geometry"/>
                </mxCell>
                <mxCell id="27" value="32CD32" style="rounded=0;whiteSpace=wrap;html=1;strokeColor=#32CD32;strokeWidth=1;fillColor=#32CD32;gradientColor=none;" vertex="1" parent="1">
                    <mxGeometry x="190" y="980" width="300" height="60" as="geometry"/>
                </mxCell>
            </root>
        </mxGraphModel>
    </diagram>
</mxfile>